<svg width="779" height="500" viewBox="0 0 779 500" fill="none" xmlns="http://www.w3.org/2000/svg">
<path fill-rule="evenodd" clip-rule="evenodd" d="M363.663 438.401C330.49 458.458 291.593 470 250 470C128.497 470 30 371.503 30 250C30 128.497 128.497 30 250 30C291.593 30 330.49 41.5423 363.663 61.5986C371.675 54.6042 380.137 48.1126 389 42.173C349.253 15.5365 301.441 0 250 0C111.929 0 0 111.929 0 250C0 388.071 111.929 500 250 500C301.441 500 349.253 484.464 389 457.827C380.137 451.887 371.675 445.396 363.663 438.401ZM389 79.4655C438.435 119.808 470 181.218 470 250C470 318.782 438.435 380.192 389 420.534C396.997 427.061 405.462 433.036 414.337 438.401C466.833 392.573 500 325.16 500 250C500 174.84 466.833 107.427 414.337 61.5986C405.462 66.9642 396.997 72.9392 389 79.4655Z" fill="#0BE0D4"/>
<path fill-rule="evenodd" clip-rule="evenodd" d="M364.663 61.5986C312.167 107.427 279 174.84 279 250C279 325.16 312.167 392.573 364.663 438.401C373.538 433.036 382.003 427.061 390 420.534C340.565 380.192 309 318.782 309 250C309 181.218 340.565 119.808 390 79.4655C382.003 72.9392 373.538 66.9642 364.663 61.5986ZM390 457.827C429.747 484.464 477.559 500 529 500C667.071 500 779 388.071 779 250C779 111.929 667.071 0 529 0C477.559 0 429.747 15.5365 390 42.173C398.863 48.1126 407.325 54.6042 415.337 61.5986C448.51 41.5423 487.407 30 529 30C650.503 30 749 128.497 749 250C749 371.503 650.503 470 529 470C487.407 470 448.51 458.458 415.337 438.401C407.325 445.396 398.863 451.887 390 457.827Z" fill="#ACB3DF"/>
</svg>
