<svg width="626" height="178" viewBox="0 0 626 178" fill="none" xmlns="http://www.w3.org/2000/svg">
<path d="M43.4 148.55C36.6833 148.447 31.2067 147.723 26.97 146.38C22.8367 145.037 19.53 143.177 17.05 140.8C14.6733 138.32 13.02 135.375 12.09 131.965C11.2633 128.452 10.85 124.525 10.85 120.185V30.44L33.945 26.72V115.535C33.945 117.602 34.1 119.462 34.41 121.115C34.72 122.768 35.2883 124.163 36.115 125.3C37.045 126.437 38.3367 127.367 39.99 128.09C41.6433 128.813 43.865 129.278 46.655 129.485L43.4 148.55ZM136.153 106.08C136.153 112.487 135.223 118.377 133.363 123.75C131.503 129.02 128.816 133.567 125.303 137.39C121.79 141.11 117.553 144.003 112.593 146.07C107.736 148.137 102.26 149.17 96.163 149.17C90.1696 149.17 84.693 148.137 79.733 146.07C74.8763 144.003 70.6913 141.11 67.178 137.39C63.6646 133.567 60.9263 129.02 58.963 123.75C56.9996 118.377 56.018 112.487 56.018 106.08C56.018 99.6733 56.9996 93.835 58.963 88.565C61.0296 83.295 63.8196 78.8 67.333 75.08C70.9496 71.36 75.1863 68.4667 80.043 66.4C85.003 64.3333 90.3763 63.3 96.163 63.3C102.053 63.3 107.426 64.3333 112.283 66.4C117.243 68.4667 121.48 71.36 124.993 75.08C128.506 78.8 131.245 83.295 133.208 88.565C135.171 93.835 136.153 99.6733 136.153 106.08ZM112.593 106.08C112.593 98.95 111.146 93.37 108.253 89.34C105.463 85.2067 101.433 83.14 96.163 83.14C90.893 83.14 86.8113 85.2067 83.918 89.34C81.0246 93.37 79.578 98.95 79.578 106.08C79.578 113.21 81.0246 118.893 83.918 123.13C86.8113 127.263 90.893 129.33 96.163 129.33C101.433 129.33 105.463 127.263 108.253 123.13C111.146 118.893 112.593 113.21 112.593 106.08ZM223.638 144.21C219.712 145.347 214.648 146.38 208.448 147.31C202.248 148.343 195.738 148.86 188.918 148.86C181.995 148.86 176.208 147.93 171.558 146.07C167.012 144.21 163.395 141.627 160.708 138.32C158.022 134.91 156.11 130.88 154.973 126.23C153.837 121.58 153.268 116.465 153.268 110.885V65.47H176.363V108.095C176.363 115.535 177.345 120.908 179.308 124.215C181.272 127.522 184.94 129.175 190.313 129.175C191.967 129.175 193.723 129.123 195.583 129.02C197.443 128.813 199.097 128.607 200.543 128.4V65.47H223.638V144.21ZM293.404 100.19C291.337 108.043 289.116 115.845 286.739 123.595C284.466 131.345 282.037 139.147 279.454 147H261.474C259.614 142.66 257.599 137.493 255.429 131.5C253.259 125.507 250.986 118.997 248.609 111.97C246.336 104.84 243.959 97.3483 241.479 89.495C239.102 81.5383 236.777 73.53 234.504 65.47H258.839C259.666 69.19 260.544 73.2717 261.474 77.715C262.507 82.055 263.541 86.55 264.574 91.2C265.711 95.85 266.847 100.552 267.984 105.305C269.224 109.955 270.464 114.45 271.704 118.79C273.047 114.243 274.339 109.593 275.579 104.84C276.922 100.087 278.162 95.4367 279.299 90.89C280.539 86.24 281.676 81.7967 282.709 77.56C283.846 73.22 284.827 69.19 285.654 65.47H302.394C303.221 69.19 304.151 73.22 305.184 77.56C306.217 81.7967 307.302 86.24 308.439 90.89C309.576 95.4367 310.764 100.087 312.004 104.84C313.244 109.593 314.536 114.243 315.879 118.79C317.119 114.45 318.359 109.955 319.599 105.305C320.839 100.552 321.976 95.85 323.009 91.2C324.146 86.55 325.179 82.055 326.109 77.715C327.142 73.2717 328.072 69.19 328.899 65.47H352.924C350.651 73.53 348.274 81.5383 345.794 89.495C343.417 97.3483 341.041 104.84 338.664 111.97C336.391 118.997 334.117 125.507 331.844 131.5C329.674 137.493 327.659 142.66 325.799 147H307.819C305.236 139.147 302.704 131.345 300.224 123.595C297.744 115.845 295.471 108.043 293.404 100.19ZM361.477 106.855C361.477 99.6217 362.562 93.3183 364.732 87.945C367.005 82.4683 369.95 77.9217 373.567 74.305C377.184 70.6883 381.317 67.95 385.967 66.09C390.72 64.23 395.577 63.3 400.537 63.3C412.11 63.3 421.255 66.865 427.972 73.995C434.689 81.0217 438.047 91.4067 438.047 105.15C438.047 106.493 437.995 107.992 437.892 109.645C437.789 111.195 437.685 112.59 437.582 113.83H385.192C385.709 118.583 387.93 122.355 391.857 125.145C395.784 127.935 401.054 129.33 407.667 129.33C411.904 129.33 416.037 128.968 420.067 128.245C424.2 127.418 427.559 126.437 430.142 125.3L433.242 144.055C432.002 144.675 430.349 145.295 428.282 145.915C426.215 146.535 423.89 147.052 421.307 147.465C418.827 147.982 416.14 148.395 413.247 148.705C410.354 149.015 407.46 149.17 404.567 149.17C397.23 149.17 390.824 148.085 385.347 145.915C379.974 143.745 375.479 140.8 371.862 137.08C368.349 133.257 365.714 128.762 363.957 123.595C362.304 118.428 361.477 112.848 361.477 106.855ZM415.727 98.02C415.624 96.0567 415.262 94.145 414.642 92.285C414.125 90.425 413.247 88.7717 412.007 87.325C410.87 85.8783 409.372 84.69 407.512 83.76C405.755 82.83 403.534 82.365 400.847 82.365C398.264 82.365 396.042 82.83 394.182 83.76C392.322 84.5867 390.772 85.7233 389.532 87.17C388.292 88.6167 387.31 90.3217 386.587 92.285C385.967 94.145 385.502 96.0567 385.192 98.02H415.727ZM512.6 130.88C514.873 130.88 517.043 130.828 519.11 130.725C521.176 130.622 522.83 130.467 524.07 130.26V112.745C523.14 112.538 521.745 112.332 519.885 112.125C518.025 111.918 516.32 111.815 514.77 111.815C512.6 111.815 510.533 111.97 508.57 112.28C506.71 112.487 505.056 112.952 503.61 113.675C502.163 114.398 501.026 115.38 500.2 116.62C499.373 117.86 498.96 119.41 498.96 121.27C498.96 124.887 500.148 127.418 502.525 128.865C505.005 130.208 508.363 130.88 512.6 130.88ZM510.74 63.3C517.56 63.3 523.243 64.075 527.79 65.625C532.336 67.175 535.953 69.3967 538.64 72.29C541.43 75.1833 543.393 78.6967 544.53 82.83C545.666 86.9633 546.235 91.5617 546.235 96.625V144.675C542.928 145.398 538.33 146.225 532.44 147.155C526.55 148.188 519.42 148.705 511.05 148.705C505.78 148.705 500.975 148.24 496.635 147.31C492.398 146.38 488.73 144.882 485.63 142.815C482.53 140.645 480.153 137.855 478.5 134.445C476.846 131.035 476.02 126.85 476.02 121.89C476.02 117.137 476.95 113.107 478.81 109.8C480.773 106.493 483.356 103.858 486.56 101.895C489.763 99.9317 493.431 98.5367 497.565 97.71C501.698 96.78 505.986 96.315 510.43 96.315C513.426 96.315 516.061 96.47 518.335 96.78C520.711 96.9867 522.623 97.2967 524.07 97.71V95.54C524.07 91.6133 522.881 88.4617 520.505 86.085C518.128 83.7083 513.995 82.52 508.105 82.52C504.178 82.52 500.303 82.83 496.48 83.45C492.656 83.9667 489.35 84.7417 486.56 85.775L483.615 67.175C484.958 66.7617 486.611 66.3483 488.575 65.935C490.641 65.4183 492.863 65.005 495.24 64.695C497.616 64.2817 500.096 63.9717 502.68 63.765C505.366 63.455 508.053 63.3 510.74 63.3ZM619.818 148.55C613.102 148.447 607.625 147.723 603.388 146.38C599.255 145.037 595.948 143.177 593.468 140.8C591.092 138.32 589.438 135.375 588.508 131.965C587.682 128.452 587.268 124.525 587.268 120.185V30.44L610.363 26.72V115.535C610.363 117.602 610.518 119.462 610.828 121.115C611.138 122.768 611.707 124.163 612.533 125.3C613.463 126.437 614.755 127.367 616.408 128.09C618.062 128.813 620.283 129.278 623.073 129.485L619.818 148.55Z" fill="white"/>
<circle cx="457" cy="147" r="15" fill="#0BE0D4"/>
<circle cx="570" cy="147" r="15" fill="#0BE0D4"/>
</svg>
