<svg width="233" height="233" viewBox="0 0 233 233" fill="none" xmlns="http://www.w3.org/2000/svg">
<circle cx="116.5" cy="116.5" r="112.5" stroke="#0BE0D4" stroke-width="8"/>
<path fill-rule="evenodd" clip-rule="evenodd" d="M202.673 152.846C207.391 141.673 210 129.391 210 116.5C210 103.762 207.453 91.6196 202.84 80.5534C202.41 88.8331 200.212 98.3026 196.245 108.962C191.021 123.256 183.339 137.778 173.199 152.527C174.272 155.864 175.803 158.142 177.792 159.361C179.781 160.58 182.351 160.934 185.503 160.423C187.231 160.142 189.119 159.408 191.165 158.219C193.314 157.014 195.233 155.589 196.922 153.945C197.952 152.921 199.026 152.319 200.144 152.137C201.107 151.981 201.95 152.217 202.673 152.846ZM191.15 172.808C188.82 173.739 186.355 174.416 183.755 174.838C174.096 176.405 166.682 174.225 161.512 168.298C160.954 167.65 160.419 166.974 159.908 166.271C159.307 167.25 158.508 168.155 157.514 168.986C152.558 173.097 146.683 175.421 139.891 175.956C130.113 176.728 122.597 173.903 117.341 167.483C116.69 166.678 116.069 165.839 115.481 164.965C113.944 166.544 112.421 167.929 110.911 169.119C106.959 172.236 102.14 173.925 96.4545 174.186C90.6013 174.454 85.891 172.776 82.3236 169.152C78.757 165.432 76.5398 160.089 75.6721 153.121C69.3754 168.088 60.2066 175.848 48.1658 176.4C46.9755 176.454 45.8089 176.439 44.666 176.355C61.8172 196.916 87.6306 210 116.5 210C146.996 210 174.082 195.4 191.15 172.808ZM185.308 53.1931C185.1 53.2197 184.889 53.2502 184.677 53.2846C176.036 54.6868 169.057 60.6154 163.741 71.0704C161.925 74.7063 160.311 78.5379 158.899 82.5653C159.054 79.6332 158.988 76.8312 158.701 74.1592C157.937 67.0388 155.911 61.7048 152.624 58.1574C149.431 54.5161 145.365 52.8902 140.424 53.2798C131.676 53.9697 124.627 59.3705 119.278 69.482C114.031 79.5855 110.479 91.4585 108.622 105.101C106.868 118.736 106.552 130.786 107.676 141.253C108.138 145.559 108.914 149.521 110.005 153.14C109.798 153.338 109.595 153.526 109.396 153.705C106.956 155.806 104.398 156.918 101.723 157.04C98.9632 157.167 96.923 156.124 95.602 153.912C94.2817 151.605 93.6406 147.893 93.6786 142.778C93.7215 136.999 94.6621 128.528 96.5004 117.363C98.423 106.101 100.505 95.8248 102.748 86.5361C103.007 85.3878 103.14 84.4347 103.145 83.6768C103.178 79.3191 100.225 77.2763 94.2885 77.5485C91.78 77.6635 89.7697 78.2292 88.2576 79.2455C86.7454 80.2619 85.7287 82.1078 85.2072 84.7833C81.9783 103.114 78.7357 117.657 75.4795 128.413C72.2232 139.168 68.6543 147.003 64.7728 151.916C60.8912 156.829 56.4001 159.402 51.2995 159.636C46.7842 159.843 43.1212 157.833 40.3106 153.605C37.5843 149.28 36.2511 143.09 36.3109 135.038C36.3933 123.954 38.3095 113.544 42.0597 103.808C45.81 94.0709 51.4275 86.1426 58.9123 80.0227C66.3978 73.8081 75.4502 70.4574 86.0696 69.9705C89.4979 69.8133 92.7568 69.948 95.8464 70.3746C98.9367 70.7064 102.652 71.341 106.991 72.2785C107.325 72.3579 107.826 72.3822 108.495 72.3516C110.669 72.2519 112.559 71.0762 114.164 68.8245C115.852 66.569 116.706 64.2097 116.724 61.7467C116.746 58.7152 115.59 56.8742 113.254 56.2237C109.669 55.0623 105.662 54.2516 101.236 53.7917C96.8925 53.3279 92.7978 53.1842 88.9514 53.3605C74.0676 54.0429 61.2882 58.3694 50.6133 66.3402C39.9391 74.2162 31.8387 84.4364 26.3121 97.0008C25.4873 98.8621 24.7229 100.745 24.0188 102.649C30.7115 57.5787 69.5676 23 116.5 23C143.719 23 168.221 34.6306 185.308 53.1931ZM154.42 155.037C153.298 151.453 152.509 147.478 152.051 143.112C151.023 133.285 151.298 121.916 152.878 109.003C152.697 109.493 152.513 109.985 152.324 110.479C147.08 124.476 139.347 138.495 129.126 152.538C130.224 155.999 131.782 158.428 133.8 159.826C135.819 161.224 138.423 161.797 141.613 161.546C143.363 161.408 145.273 160.824 147.342 159.796C149.514 158.76 151.453 157.482 153.158 155.963C153.571 155.587 153.992 155.278 154.42 155.037ZM175.799 78.1066C178.016 70.6383 180.293 66.7144 182.632 66.335C185.478 65.8731 187.237 68.8423 187.907 75.2427C188.762 83.4116 187.575 92.8112 184.345 103.442C181.107 113.988 176.394 124.773 170.207 135.798C169.414 126.248 169.594 116.113 170.746 105.391C171.898 94.6698 173.583 85.5749 175.799 78.1066ZM131.514 77.601C133.735 70.2452 136.028 66.4739 138.395 66.2873C141.277 66.06 143.068 69.2063 143.768 75.7262C144.661 84.0477 143.489 93.4404 140.253 103.904C137.008 114.283 132.27 124.778 126.04 135.392C125.206 125.682 125.354 115.461 126.486 104.731C127.618 94.0001 129.294 84.9569 131.514 77.601Z" fill="#0BE0D4"/>
</svg>
